<svg width="88" height="30" viewBox="0 0 88 30" fill="none" xmlns="http://www.w3.org/2000/svg">
<g clip-path="url(#clip0_2072_97220)">
<path d="M22 21C21.4 20.5 20.8 20 19.5 20C17 20 17 22 14.5 22C11.9 22 12.1 20 9.5 20C7 20 7 22 4.5 22C3.2 22 2.6 21.5 2 21" stroke="white" stroke-width="2.5" stroke-linecap="round" stroke-linejoin="round"/>
<path d="M22 15C21.4 14.5 20.8 14 19.5 14C17 14 17 16 14.5 16C11.9 16 12.1 14 9.5 14C7 14 7 16 4.5 16C3.2 16 2.6 15.5 2 15" stroke="white" stroke-width="2.5" stroke-linecap="round" stroke-linejoin="round"/>
<path d="M22 9C21.4 8.5 20.8 8 19.5 8C17 8 17 10 14.5 10C11.9 10 12.1 8 9.5 8C7 8 7 10 4.5 10C3.2 10 2.6 9.5 2 9" stroke="white" stroke-width="2.5" stroke-linecap="round" stroke-linejoin="round"/>
</g>
<path d="M28.78 26V9.35C28.78 7.91 29.18 6.78 29.98 5.96C30.8 5.12 32.05 4.7 33.73 4.7H36.85V7.67H34.45C33.83 7.67 33.37 7.83 33.07 8.15C32.79 8.47 32.65 8.94 32.65 9.56V26H28.78ZM26.5 13.37V10.4H36.64V13.37H26.5ZM43.33 26C42.17 26 41.24 25.7 40.54 25.1C39.84 24.5 39.49 23.54 39.49 22.22V4.7H43.33V21.83C43.33 22.23 43.43 22.53 43.63 22.73C43.85 22.93 44.15 23.03 44.53 23.03H45.7V26H43.33ZM54.8245 26.36C53.2445 26.36 51.8545 26.02 50.6545 25.34C49.4745 24.64 48.5545 23.66 47.8945 22.4C47.2545 21.14 46.9345 19.67 46.9345 17.99C46.9345 16.29 47.2545 14.82 47.8945 13.58C48.5545 12.32 49.4745 11.35 50.6545 10.67C51.8545 9.97 53.2445 9.62 54.8245 9.62C56.4045 9.62 57.7845 9.97 58.9645 10.67C60.1445 11.35 61.0545 12.32 61.6945 13.58C62.3545 14.82 62.6845 16.29 62.6845 17.99C62.6845 19.67 62.3545 21.14 61.6945 22.4C61.0545 23.66 60.1445 24.64 58.9645 25.34C57.7845 26.02 56.4045 26.36 54.8245 26.36ZM54.8245 23.24C56.0645 23.24 57.0145 22.78 57.6745 21.86C58.3545 20.94 58.6945 19.65 58.6945 17.99C58.6945 16.35 58.3545 15.07 57.6745 14.15C57.0145 13.21 56.0645 12.74 54.8245 12.74C53.5845 12.74 52.6245 13.21 51.9445 14.15C51.2645 15.07 50.9245 16.35 50.9245 17.99C50.9245 19.65 51.2645 20.94 51.9445 21.86C52.6245 22.78 53.5845 23.24 54.8245 23.24ZM68.151 26L63.321 9.98H67.251L70.371 21.65L73.581 9.98H76.941L80.181 21.65L83.301 9.98H87.231L82.401 26H78.441L75.261 15.26L72.111 26H68.151Z" fill="white"/>
<defs>
<clipPath id="clip0_2072_97220">
<rect width="24" height="24" fill="white" transform="translate(24 27) rotate(180)"/>
</clipPath>
</defs>
</svg>
